<?xml version="1.0" encoding="UTF-8" standalone="no"?>
<!DOCTYPE svg PUBLIC "-//W3C//DTD SVG 1.1//EN" "http://www.w3.org/Graphics/SVG/1.1/DTD/svg11.dtd">
<svg width="100%" height="100%" viewBox="0 0 3249 1466" version="1.1" xmlns="http://www.w3.org/2000/svg" xmlns:xlink="http://www.w3.org/1999/xlink" xml:space="preserve" xmlns:serif="http://www.serif.com/" style="fill-rule:evenodd;clip-rule:evenodd;stroke-linejoin:round;stroke-miterlimit:2;">
    <g transform="matrix(1.03242,0,0,1.03242,-548.728,-1734.96)">
        <g transform="matrix(12.562,0,0,12.562,531.496,1680.47)">
            <path d="M21.24,94.47C29.49,91.64 44.07,91.08 44.52,81.81C44.88,74.38 33.22,72.75 26.67,69.38C19.898,71.61 12.798,72.682 5.67,72.55L0,72.55L0,88.82L6.55,88.82C12.5,88.82 17.06,91.15 21.24,94.47Z" style="fill:rgb(64,181,255);fill-rule:nonzero;"/>
        </g>
        <g transform="matrix(12.562,0,0,12.562,531.496,1680.47)">
            <path d="M26.67,69.38C41.76,64.23 72.77,54.69 72.77,54.69C72.77,54.69 41.52,46.8 26,42.71C20.208,46.451 13.445,48.415 6.55,48.36L0,48.36L0,64.64L6.55,64.64C13.55,64.51 20.47,66.14 26.67,69.38Z" style="fill:rgb(255,124,255);fill-rule:nonzero;"/>
        </g>
        <g transform="matrix(12.562,0,0,12.562,531.496,1680.47)">
            <path d="M26,42.71C32.64,38.58 44.83,35.44 44.08,27.35C43.32,19.1 29.65,19 19,17.18C14.94,21.18 11.07,24.41 6.57,24.41L0,24.41L0,40.41L5.42,40.41C12.351,40.282 19.269,41.055 26,42.71Z" style="fill:rgb(255,209,58);fill-rule:nonzero;"/>
        </g>
        <g transform="matrix(12.562,0,0,12.562,531.496,1680.47)">
            <path d="M19,17.18C26.31,10 45,0 45,0L0,0L0,16.05L6.55,16.05C10.72,16.06 14.89,16.44 19,17.18Z" style="fill:rgb(255,183,0);fill-rule:nonzero;"/>
        </g>
        <g transform="matrix(12.562,0,0,12.562,531.496,1680.47)">
            <path d="M82.72,40.45C83.56,37.67 84.02,34.78 84.07,31.87C84.07,24.3 82.07,17.87 78.42,12.87C62.65,12.87 44.07,12.87 44.07,27.34C44.07,40.45 64.3,40.45 82.72,40.45Z" style="fill:rgb(242,12,81);fill-rule:nonzero;"/>
        </g>
        <g transform="matrix(12.562,0,0,12.562,531.496,1680.47)">
            <path d="M19,17.18C29.65,19 37,23.05 44.07,27.35C52.73,19.66 62.65,12.88 78.42,12.88C72.23,4.5 60.88,0 44.88,0C33.85,0 26.31,10 19,17.18Z" style="fill:rgb(255,124,0);fill-rule:nonzero;"/>
        </g>
        <g transform="matrix(12.562,0,0,12.562,531.496,1680.47)">
            <path d="M85.43,69.38C67.33,69.38 45.13,69.38 44.52,81.81C43.91,93.81 65.16,95.89 83.62,95.89C86.109,90.891 87.351,85.363 87.24,79.78C87.24,76.23 86.63,72.72 85.43,69.38Z" style="fill:rgb(83,36,179);fill-rule:nonzero;"/>
        </g>
        <g transform="matrix(12.562,0,0,12.562,531.496,1680.47)">
            <path d="M44.52,81.81C55.14,75.39 67.33,69.38 85.43,69.38C83.04,63.097 78.466,57.881 72.55,54.69C49.04,54.69 41.76,64.23 26.67,69.38C33.22,72.75 38.58,77.36 44.52,81.81Z" style="fill:rgb(155,84,230);fill-rule:nonzero;"/>
        </g>
        <g transform="matrix(12.562,0,0,12.562,531.496,1680.47)">
            <path d="M26,42.71C41.53,46.8 48.69,54.71 72.56,54.71C77.48,51.262 81.068,46.226 82.72,40.45C64.3,40.45 54.51,33.67 44.07,27.35C38,32.75 32.63,38.58 26,42.71Z" style="fill:rgb(255,54,156);fill-rule:nonzero;"/>
        </g>
        <g transform="matrix(12.562,0,0,12.562,531.496,1680.47)">
            <path d="M21.31,94.47C16.95,96.067 12.353,96.922 7.71,97L0,97L0,113L47.91,113C47.91,113 30.28,101.63 21.29,94.47L21.31,94.47Z" style="fill:rgb(23,215,230);fill-rule:nonzero;"/>
        </g>
        <g transform="matrix(12.562,0,0,12.562,531.496,1680.47)">
            <path d="M21.24,94.47C30.24,101.63 36.66,113 47.69,113C65.88,113 78.04,106.6 83.62,95.82C65.16,95.82 54.17,89.04 44.52,81.82C36.57,86.6 29.49,91.64 21.24,94.47Z" style="fill:rgb(89,113,242);fill-rule:nonzero;"/>
        </g>
        <g transform="matrix(12.562,0,0,12.562,429.496,1680.47)">
            <path d="M114.19,9.94L121.27,9.94C126.39,9.94 128.82,11.76 128.82,15.05C128.82,17 127.97,18.39 125.43,19.46C128.68,20.32 129.28,22.36 129.28,24.17C129.28,27.78 126.93,29.46 121.59,29.46L114.19,29.46L114.19,9.94ZM121.89,18.01C123.5,18.01 125.01,17.28 125.01,15.57C125.01,13.86 123.59,13 121.62,13L118.12,13L118.12,18L121.89,18.01ZM121.67,26.41C124.04,26.41 125.28,25.41 125.28,23.78C125.28,22.15 123.82,21.14 121.89,21.14L118.12,21.14L118.12,26.41L121.67,26.41ZM133.67,9.94L147.08,9.94L147.08,13.26L137.64,13.26L137.64,18L145.84,18L145.84,21.25L137.6,21.25L137.6,26.1L147.22,26.1L147.22,29.45L133.67,29.45L133.67,9.94ZM168.27,9.94L168.27,29.46L164.71,29.46L155.44,16L155.44,29.46L151.51,29.46L151.51,9.94L155.41,9.94L164.32,22.86L164.32,9.94L168.27,9.94ZM190,9.94L190,29.46L186.45,29.46L177.17,16L177.17,29.46L173.24,29.46L173.24,9.94L177.14,9.94L186.06,22.86L186.06,9.94L190,9.94ZM195,9.94L208.41,9.94L208.41,13.26L198.97,13.26L198.97,18L207.17,18L207.17,21.25L198.95,21.25L198.95,26.1L208.56,26.1L208.56,29.45L195,29.45L195,9.94ZM211.7,9.94L227.33,9.94L227.33,13.45L221.56,13.45L221.56,29.45L217.56,29.45L217.56,13.45L211.66,13.45L211.7,9.94ZM229.87,9.94L245.5,9.94L245.5,13.45L239.73,13.45L239.73,29.45L235.73,29.45L235.73,13.45L229.83,13.45L229.87,9.94ZM114.19,38.94L118.12,38.94L118.12,58.46L114.19,58.46L114.19,38.94ZM139.87,38.94L139.87,58.46L136.32,58.46L127.05,45L127.05,58.46L123.12,58.46L123.12,38.94L127,38.94L135.91,51.86L135.91,38.94L139.87,38.94ZM144,52.89L148,52.89C148.39,54.66 150,55.64 152.12,55.64C154.24,55.64 156.06,54.84 156.06,53.18C156.06,51.71 154.63,51.09 152.76,50.71L149.43,50C146.49,49.44 144.62,47.65 144.58,44.66C144.58,40.98 147.85,38.66 152.09,38.66C157.09,38.66 159.83,41.28 159.88,44.58L155.88,44.58C155.67,42.58 154.16,41.8 152.12,41.8C150.08,41.8 148.67,42.8 148.67,44.19C148.67,45.32 149.28,45.98 151.36,46.43L154.71,47.12C159.48,48.04 160.03,51.12 160.03,53.12C160.03,56.26 156.86,58.69 152.14,58.69C148.32,58.73 144.42,56.8 144,52.89ZM162.45,38.94L178.08,38.94L178.08,42.45L172.31,42.45L172.31,58.45L168.36,58.45L168.36,42.45L162.45,42.45L162.45,38.94ZM181.38,38.94L185.31,38.94L185.31,58.46L181.38,58.46L181.38,38.94ZM188.63,38.94L204.26,38.94L204.26,42.45L198.49,42.45L198.49,58.45L194.49,58.45L194.49,42.45L188.59,42.45L188.63,38.94ZM215.37,58.73C209.65,58.73 207.56,55.73 207.56,50.89L207.56,38.89L211.56,38.89L211.56,51.18C211.56,54.1 213.1,55.38 215.36,55.38C217.62,55.38 219.19,54.13 219.19,51.18L219.19,38.94L223.19,38.94L223.19,51C223.18,55.76 221.05,58.73 215.37,58.73ZM226.05,38.94L241.68,38.94L241.68,42.45L235.91,42.45L235.91,58.45L231.91,58.45L231.91,42.45L226.01,42.45L226.05,38.94ZM245,38.94L258.41,38.94L258.41,42.26L248.97,42.26L248.97,47L257.16,47L257.16,50.25L248.94,50.25L248.94,55.1L258.56,55.1L258.56,58.45L245,58.45L245,38.94ZM122,70.08L122,71.46L116,71.46L116,75.52L121.42,75.52L121.42,76.88L116,76.88L116,82.37L114.39,82.37L114.39,70.08L122,70.08ZM126,76.25C126,72.25 128.07,69.91 131.33,69.91C134.59,69.91 136.64,72.22 136.64,76.25C136.64,80.28 134.64,82.54 131.33,82.54C128.02,82.54 126,80.27 126,76.25ZM134.91,76.25C134.91,72.82 133.59,71.25 131.33,71.25C129.07,71.25 127.73,72.82 127.73,76.25C127.73,79.68 129.08,81.15 131.33,81.15C133.58,81.15 134.91,79.65 134.91,76.27L134.91,76.25ZM148.58,82.37L146.33,77.08L143,77.08L143,82.37L141.43,82.37L141.43,70.08L146.19,70.08C148.85,70.08 150.19,71.35 150.19,73.44C150.249,74.965 149.268,76.35 147.81,76.8L150.22,82.37L148.58,82.37ZM148.58,73.53C148.58,72.09 147.63,71.37 146.06,71.37L143,71.37L143,75.78L145.68,75.78C147.55,75.78 148.6,75 148.6,73.53L148.58,73.53ZM165.17,70.08L167,70.08L171.44,82.37L169.84,82.37L168.58,79L163.58,79L162.36,82.36L160.77,82.36L165.17,70.08ZM168.17,77.56L166.07,71.62L164,77.56L168.17,77.56ZM176,70.08L180.16,70.08C182.79,70.08 184.71,71.43 184.71,73.97C184.71,76.51 182.95,77.83 180.37,77.83L177.62,77.83L177.62,82.37L176,82.37L176,70.08ZM180.34,76.5L180.6,76.51C182.011,76.499 183.169,75.341 183.18,73.93L183.18,73.87C183.18,72.24 181.99,71.39 180.26,71.39L177.6,71.39L177.6,76.5L180.34,76.5ZM189.09,70.08L193.25,70.08C195.88,70.08 197.8,71.43 197.8,73.97C197.8,76.51 196.04,77.83 193.46,77.83L190.7,77.83L190.7,82.37L189.09,82.37L189.09,70.08ZM193.42,76.5L193.69,76.51C195.101,76.499 196.259,75.341 196.27,73.93L196.27,73.87C196.27,72.24 195.07,71.39 193.35,71.39L190.7,71.39L190.7,76.5L193.42,76.5ZM203.8,70.08L203.8,81L209.61,81L209.61,82.41L202.19,82.41L202.19,70.08L203.8,70.08ZM214.28,70.08L215.86,70.08L215.86,82.37L214.28,82.37L214.28,70.08ZM221.37,70.08L229.12,70.08L229.12,71.47L223,71.47L223,75.47L228.55,75.47L228.55,76.85L223,76.85L223,81L229.34,81L229.34,82.4L221.42,82.4L221.37,70.08ZM237.17,70.1C241.68,70.16 243.56,72.27 243.56,76.15C243.56,80.23 241.47,82.37 237,82.37L234.31,82.37L234.31,70.08L237.17,70.1ZM235.92,81L237,81C240.05,81 241.9,79.71 241.9,76.16C241.9,72.61 240.12,71.41 237.07,71.41L235.92,71.41L235.92,81ZM117.18,90.5C121.69,90.56 123.57,92.67 123.57,96.5C123.57,100.58 121.48,102.72 117.02,102.72L114.33,102.72L114.33,90.48L117.18,90.5ZM115.94,101.42L117,101.42C120,101.42 121.89,100.13 121.89,96.58C121.89,93.03 120.11,91.83 117.07,91.83L115.92,91.83L115.94,101.42ZM131.44,90.48L133.21,90.48L137.66,102.77L136.05,102.77L134.84,99.41L129.84,99.41L128.63,102.77L127,102.77L131.44,90.48ZM134.44,97.96L132.32,92L130.22,98L134.44,97.96ZM139.52,90.48L148.82,90.48L148.82,91.93L145.07,91.93L145.07,102.77L143.49,102.77L143.49,91.93L139.49,91.93L139.52,90.48ZM155.14,90.48L156.92,90.48L161.36,102.77L159.76,102.77L158.55,99.41L153.55,99.41L152.33,102.77L150.7,102.77L155.14,90.48ZM158.14,97.96L156,92L153.93,98L158.14,97.96ZM171.73,99.51L173.38,99.51C173.791,100.875 175.121,101.767 176.54,101.63C178.26,101.63 179.54,100.87 179.54,99.63C179.54,98.39 178.77,97.88 177.41,97.56L175,97C173.19,96.6 172.11,95.6 172.09,93.92C172.09,91.79 173.92,90.34 176.48,90.34C179.42,90.34 180.96,92.04 180.98,93.9L179.36,93.9C179.19,92.24 177.94,91.67 176.48,91.67C175.02,91.67 173.75,92.39 173.75,93.77C173.75,94.66 174.25,95.17 175.85,95.56L178.19,96.12C179.949,96.298 181.278,97.844 181.19,99.61C181.19,101.47 179.48,102.95 176.56,102.95C174.22,102.94 172.05,101.77 171.73,99.51ZM195,94.27L193.33,94.27C193.121,92.784 191.831,91.67 190.33,91.68C188.08,91.68 186.88,93.2 186.88,96.6C186.88,100 188.08,101.6 190.33,101.6C191.853,101.605 193.153,100.453 193.33,98.94L195,98.94C194.789,101.293 192.719,103.078 190.36,102.94C187.04,102.94 185.13,100.6 185.13,96.59C185.13,92.58 187.03,90.31 190.36,90.31C192.686,90.23 194.713,91.96 195,94.27ZM199.86,90.48L201.43,90.48L201.43,102.77L199.86,102.77L199.86,90.48ZM207,90.48L214.75,90.48L214.75,91.87L208.59,91.87L208.59,95.87L214.14,95.87L214.14,97.25L208.58,97.25L208.58,101.34L214.92,101.34L214.92,102.74L207,102.74L207,90.48ZM229.46,90.48L229.46,102.77L228.05,102.77L221.46,93.08L221.46,102.77L219.89,102.77L219.89,90.48L221.39,90.48L227.88,100.04L227.88,90.48L229.46,90.48ZM244.14,94.27L242.47,94.27C242.261,92.784 240.971,91.67 239.47,91.68C237.23,91.68 236.03,93.2 236.03,96.6C236.03,100 237.23,101.6 239.47,101.6C240.993,101.605 242.293,100.453 242.47,98.94L244.14,98.94C243.934,101.296 241.86,103.084 239.5,102.94C236.19,102.94 234.28,100.6 234.28,96.59C234.28,92.58 236.17,90.31 239.5,90.31C241.826,90.23 243.853,91.96 244.14,94.27ZM249,90.48L256.76,90.48L256.76,91.87L250.59,91.87L250.59,95.87L256.14,95.87L256.14,97.25L250.59,97.25L250.59,101.34L256.93,101.34L256.93,102.74L249,102.74L249,90.48Z" style="fill:rgb(0,33,71);fill-rule:nonzero;"/>
        </g>
    </g>
</svg>
